<svg version="1.0" xmlns="http://www.w3.org/2000/svg" width="1706.666667" height="1214.666667" viewBox="0 0 1280 911"><path d="M140 1.1c0 .6 2.4 3.2 5.3 5.8 13.3 11.7 26.6 25.5 33.8 35.1 8.7 11.5 19 31.1 23.4 44.4 6.2 19.2 8.8 43 7.4 67.6-1.1 17.7-2.5 26.7-12 75-12.6 64.1-22.5 123-24.6 147l-.8 8.4-11.3 4.2c-66 24.5-118.9 82.6-143.5 157.9C5.7 583.1.6 612.8.6 647c-.1 26.4 2.1 41.1 8.9 60.2 12.5 34.9 41 62 73.2 69.7l5.2 1.3-5 6c-16.6 20-19.3 46-7.4 70.5 7.9 16 21.5 27.9 39 33.9 6.8 2.4 9.7 2.8 19 2.8 13.4.1 22.1-2.3 30.8-8.4l5.8-4 4.7 2.4c16.8 8.5 44.5 14.1 75.7 15.2 45.6 1.7 90.3-6.8 171.1-32.5 44.1-14 101.5-31.4 102-30.8.1.1-.2 2.2-.6 4.7-4.6 23.7 6.4 47.1 26.9 56.9 7.1 3.4 8.2 3.6 17.1 3.6 8.3 0 10.2-.3 15.5-2.8 3.3-1.6 7.2-3.9 8.6-5.3l2.7-2.6 4.8 3.5c15.5 11.1 38.2 18.1 62.4 19.3 22.7 1.2 43.5-2.2 84-13.8 56.7-16.1 60.9-16.7 124-17.8 50.1-.9 58.2-1.5 78.5-6.4 13.4-3.3 28.7-8.4 48-16.3 23.2-9.4 30.1-13 37-19.5 12.3-11.4 15.8-26.5 10.6-45.7-.7-2.3-1.1-4.4-.9-4.6.2-.2 4.4-2.1 9.4-4.3 19.1-8.4 36.5-18.2 52.2-29.4l8.3-5.8 5.2 1.5c2.9.9 9.5 1.9 14.7 2.2 17.8 1 36.1-4.2 51.9-14.8 23.8-15.8 39.9-42.3 49.4-80.9 1.5-5.8 4.6-18.8 7.1-29 5.9-24.3 8.8-33.1 18.6-55.1 16.9-37.9 20.4-50.1 20.4-70.9 0-15.3-2-24.6-7.7-35.5-4.4-8.4-15.8-19.7-23.7-23.4-12.2-5.8-26-6.2-36.2-1-2.9 1.5-3.9 1.6-4.2.7-11.4-39.3-24.7-68.8-45.3-100.6-57.6-88.8-154.9-151.5-261.8-168.7-33.8-5.5-76.2-6-109.5-1.4-62.6 8.6-124.1 33.2-171 68.3-12.8 9.6-27.9 23-27 23.9.3.3 8.6-4.6 18.5-11 22-14 33.6-20.6 51.9-29.3 40.4-19.3 81.1-31.1 126.6-36.6 20.3-2.5 62.9-2.5 83-.1 136.7 16.9 252.2 103.5 300.3 225.2 31.6 80 28.7 162.5-8.2 235.3C1123 728.6 1045 776.5 931 789.5c-48.4 5.5-111.5 3.9-156.5-4-53-9.3-95.8-30.4-127-62.6-17.3-17.9-28.7-36.4-36-58.3-4.7-14.1-6.5-25.4-6.5-41.6 0-47.5 22.5-88.9 62.5-115 15.3-9.9 31.2-16.4 51.9-21.1 7.2-1.6 13.2-3.2 13.5-3.4 1.3-1.3-20-.3-28.6 1.4-27.1 5.3-52.1 18.8-72.3 39.1-19.8 19.7-32.5 43.1-39.1 71.9-2.9 12.4-3.7 40.2-1.6 53.6 5.4 33.7 21.4 64.2 47.7 90.5 12.9 13 27.1 24 42.2 33 5.6 3.3 9.7 6 9 6-2.5 0-31.4 4.2-48.7 7.1-63.4 10.6-141.8 29.4-209.5 50.3-83.4 25.7-105.3 31.2-143.8 36.3-16.1 2.1-53.8 2.3-66.7.4-21.5-3.2-40.8-9.1-52.7-16.1-39.8-23.7-42.6-72.4-5.2-90.6 9.6-4.6 9.2-4.3 7.4-5.5-1.2-.8-1-1.3 1.5-3.2 1.7-1.2 5.1-4.1 7.7-6.5l4.6-4.3 4.9 2.4c25.3 12.8 71 20.2 108.1 17.7 56.2-3.9 102.4-22.2 132.6-52.4 11.9-11.9 18.9-21.7 25.6-35.9 11.1-23.5 13.6-48.3 7.4-72.6-3.8-15.1-13.4-32.5-16.3-29.5-.6.5-.2 4.9 1 10.9 2.9 15.3 3.6 34.9 1.5 47.3-4.1 24.2-13.6 42.4-31.5 60.2-24.2 24-59.7 40.2-105.1 47.9-23.8 4.1-57.1 5.3-80.1 3.1-11-1.1-40.2-5-40.7-5.5-.2-.2 2.1-3.9 5.2-8.3 6.3-9 11.4-19.2 12.3-24.8.8-5 0-4.3-9.1 6.9-9.6 11.8-18.1 20.1-28.1 27.2-19.4 13.8-42 21.2-62.5 20.3-8.4-.3-8 .4-5.3-9.7 5.6-21.2-10.3-46.1-34-53.3-11.9-3.6-27.4-1.7-35.9 4.4l-2.7 1.9-2.5-8.3c-7.7-25.7-8.4-53.2-2-91.4C37.7 543.6 62 492.2 99.4 453.2c32.8-34.2 74.4-55.5 122.6-62.7 13.1-2 43-3.2 43-1.8 0 .5-4.1 9.5-9.1 19.9-17.1 35.3-26.4 58.2-24.5 60.1 2.1 2.1 17.7-19.8 41-57.7l12.6-20.5 6.8-.5 6.7-.5-4.5-2.4c-2.5-1.3-4.7-2.5-4.9-2.7-.1-.1 6.9-12.6 15.6-27.6 8.8-15 26.2-45.4 38.7-67.6 12.4-22.1 25.6-45.1 29.2-51 32.2-52.3 68.1-83.5 113.6-98.7 21.7-7.2 37.9-9.5 68.6-9.5 13.2 0 21.2-.4 21.2-1 0-2.9-16.4-8.2-32.2-10.6-14.7-2.2-37.7-1.5-53.2 1.6-55.1 10.9-100.8 45.8-137.5 104.9-12.3 19.9-42.7 75.9-69.1 127.6-7.3 14.3-13.4 26.1-13.6 26.3-.1.2-6.2-.4-13.6-1.4-17.8-2.2-44-1.5-61.5 1.9-6.8 1.3-12.3 2.2-12.3 2.1 0-.2 2.9-10.4 6.5-22.7 10.6-37.1 28.9-112.5 37-153.1 8.2-41 9.2-70.5 3.4-99.1-8.2-40.1-30.8-74.4-62.5-95.2C155.3 3.5 140-2.2 140 1.1zm1096 450.3c15.2 7.6 23.3 22.5 23.2 43 0 17.6-3 27.4-19.1 62.1-14.7 31.7-17.2 39.2-26.6 82-4.9 22.1-11.4 43.4-16 52.5-14.4 28.6-39.6 46.2-70.7 49.5l-6.7.7 16.2-16.3c22.5-22.7 36.4-41.8 50.2-68.9 31-61 39.7-129.8 25-198.8-.8-4-1.5-7.5-1.5-7.7 0-.9 5.1-1.3 12.5-1.1 6.4.2 9.1.8 13.5 3zM53.2 717.1c12.1 2.5 22.7 9.6 29.3 19.4 3.1 4.8 9.5 19.8 9.5 22.4 0 1.5-8.9-1.6-18.9-6.5-7.9-3.9-11-6.2-18.1-13.3-7.7-7.6-14.9-17-16.6-21.5-.5-1.3.2-1.6 4.4-1.6 2.8 0 7.5.5 10.4 1.1zm81.1 61.1c-3.7 4.2-7.2 11.2-9.4 19.3-5.6 20.7 1.7 45 19 62.5 3.6 3.7 8.5 8.1 10.9 9.7 5.1 3.7 4.2 4.3-6.1 4.3-31.9-.1-56.5-22-58.4-52.1-.7-11.1 1.4-20.9 7.1-32.7l4.4-8.9 9.8-.7c5.5-.4 12.4-1.3 15.4-2 3-.8 6.4-1.4 7.4-1.5 1.9-.1 1.9 0-.1 2.1zm583.1 12.2c30.3 12 65.3 19.3 108.5 22.6 19.2 1.5 75.1 1.5 92.6.1 42.1-3.5 77.5-10.5 109.2-21.5 10.8-3.8 11.7-4 11-2.9-.3.5-1 5.1-1.6 10.3-2 16.3-7.7 25.2-19.5 30.6-6.7 3-46.4 15.6-61.5 19.4-22.6 5.7-28 6.2-87.1 7-58.1.8-62.3 1.1-85 6.5-11.5 2.8-26.2 7.2-47 14.2-59.6 19.8-83.7 22.1-127.2 12.1l-13.7-3.1 2.6-5.1c3.2-6.3 3.7-14.6 1-17.3-1.6-1.7-2-1.5-8 4.4-3.4 3.3-7.7 6.8-9.4 7.7-15.8 7.9-34.4-4.8-38.3-26.4-1.1-6.3-.6-18.4.9-20.9.5-.7 10-3.7 21.2-6.8 22.5-6.1 136.6-35 138.7-35.2.8-.1 6.4 1.9 12.6 4.3z"/><path d="M121.9 5.4c-8.5 3.6-19.3 11.1-29.1 20.4C52 64.6 37.8 122.9 52.6 190c5 22.7 22.8 82.1 39.9 133.5 23.1 69.5 36.9 98.2 33.4 69.2-3-24.8-16.9-83.9-37.4-158.7-11.1-40.3-13.2-48.8-15.5-62.7-10.7-62.2 2.9-108.7 44.5-152.2C133.2 2.6 133.9.4 121.9 5.4zM581.4 138.7c5.2 40.4 4.6 61.5-2.5 89-8.9 34.8-25.8 62.5-55.6 91.3-15.6 15.1-29.9 26.4-58.3 45.7-100.6 68.6-166.4 116.5-185.7 135.1-10.1 9.7-6.2 9.6 12.9-.1 7.9-4.1 22.2-12 31.8-17.7 47.7-28.1 150.9-94.4 178-114.3 60.1-44.2 91.4-93 97.1-151.7 2-20.2-.6-45.5-6.5-62.6-5.5-16.2-12.7-25.5-11.2-14.7zM145 538.3c-14 3.9-23.4 16.1-23.5 30.2 0 6 .5 8.1 3.3 13.7 11.5 23.4 43.8 23.5 55.7.3 2.6-5.1 3-6.9 2.9-13.9 0-6.8-.5-9-2.7-13.3-7-13.5-22.3-20.8-35.7-17z"/></svg>