<svg width="64" height="64" data-name="Layer 1" id="Layer_1" xmlns="http://www.w3.org/2000/svg"><defs><style>.cls-1{fill:#190933}</style></defs><path class="cls-1" d="M32 6.5A1.5 1.5 0 1 0 30.5 5 1.5 1.5 0 0 0 32 6.5Zm0-2a.5.5 0 1 1-.5.5.5.5 0 0 1 .5-.5Z"/><circle class="cls-1" cx="36" cy="5" r="1"/><circle class="cls-1" cx="28" cy="5" r="1"/><path class="cls-1" d="M49 5a5 5 0 0 0-5-5H20a5 5 0 0 0-5 5v4a1 1 0 0 0-1 1v4a1 1 0 0 0 1 1v2a1 1 0 0 0-1 1v4a1 1 0 0 0 1 1v36a5 5 0 0 0 5 5h24a5 5 0 0 0 5-5ZM20 2h24a3 3 0 0 1 3 2.5h-3a4.34 4.34 0 0 0-3.35 1.65A3.45 3.45 0 0 1 38 7.5H26a3.45 3.45 0 0 1-2.65-1.35A4.34 4.34 0 0 0 20 4.5h-2.95A3 3 0 0 1 20 2Zm24 60H20a3 3 0 0 1-3-3V5.5h3a3.45 3.45 0 0 1 2.65 1.35A4.34 4.34 0 0 0 26 8.5h12a4.34 4.34 0 0 0 3.35-1.65A3.45 3.45 0 0 1 44 5.5h3V59a3 3 0 0 1-3 3ZM54 48.66a1 1 0 0 0 .82-.42 28 28 0 0 0 .73-31.39 1 1 0 0 0-1.38-.3 1 1 0 0 0-.3 1.39 26 26 0 0 1-.68 29.13 1 1 0 0 0 .23 1.4 1 1 0 0 0 .58.19Z"/><path class="cls-1" d="M56.66 13.2a1 1 0 0 0-.23 1.39 30 30 0 0 1-.73 35.79 1 1 0 0 0 .79 1.62 1 1 0 0 0 .79-.39 31.95 31.95 0 0 0 .77-38.17 1 1 0 0 0-1.39-.24Z"/><path class="cls-1" d="M50.92 45.11a.94.94 0 0 0 .53.16 1 1 0 0 0 .85-.47 24 24 0 0 0 .7-24.44 1 1 0 0 0-1.75 1 22 22 0 0 1-.63 22.4 1 1 0 0 0 .3 1.35ZM10.14 17.94a1 1 0 1 0-1.68-1.09 28 28 0 0 0 .73 31.39 1 1 0 0 0 .82.41 1 1 0 0 0 .58-.18 1 1 0 0 0 .23-1.4 26 26 0 0 1-.68-29.13Z"/><path class="cls-1" d="M7.51 52a1 1 0 0 0 .79-1.61 30 30 0 0 1-.73-35.79A1 1 0 0 0 6 13.43a31.95 31.95 0 0 0 .72 38.17 1 1 0 0 0 .79.4Z"/><path class="cls-1" d="M12.55 45.27a.94.94 0 0 0 .53-.16 1 1 0 0 0 .31-1.38 22 22 0 0 1-.63-22.4 1 1 0 1 0-1.75-1 24 24 0 0 0 .69 24.47 1 1 0 0 0 .85.47ZM25 30h-2v-4h4a1 1 0 0 0 0-2h-4a2 2 0 0 0-2 2v4a2 2 0 0 0 2 2h2a2 2 0 0 1 0 4h-3a1 1 0 0 0 0 2h3a4 4 0 0 0 0-8ZM41 32h-1.9a1 1 0 1 0 0 2H41a3.09 3.09 0 0 1-6-1v-4a3 3 0 0 1 3.08-3 3.12 3.12 0 0 1 2.68 1.51 1 1 0 1 0 1.72-1 5.11 5.11 0 0 0-4.4-2.51A5 5 0 0 0 33 29v4a5.09 5.09 0 0 0 9.89 1.61 1.9 1.9 0 0 0-.26-1.75A2 2 0 0 0 41 32ZM29 17.5a.5.5 0 0 0-.5.5v2a.5.5 0 0 0 1 0v-2a.5.5 0 0 0-.5-.5ZM32 15.5a.5.5 0 0 0-.5.5v4a.5.5 0 0 0 1 0v-4a.5.5 0 0 0-.5-.5ZM35 20.5a.5.5 0 0 0 .5-.5v-7a.5.5 0 0 0-1 0v7a.5.5 0 0 0 .5.5Z"/></svg>