<svg width="64" height="64" data-name="Layer 1" id="Layer_1" xmlns="http://www.w3.org/2000/svg"><defs><style>.cls-1{fill:#190933}</style></defs><path class="cls-1" d="M32 0a32 32 0 1 0 11.35 61.93 1 1 0 0 0 .58-1.29 1 1 0 0 0-1.28-.58A30 30 0 0 1 4 42.86C9.29 50.15 19.13 54.77 31.14 55A4 4 0 0 0 35 58h2a4 4 0 0 0 0-8h-2a4 4 0 0 0-3.85 3C16.93 52.73 6 46 2.83 36.05A23.81 23.81 0 0 0 11.19 40a42.85 42.85 0 0 0 1.26 5.2.51.51 0 0 0 .48.35h.15a.51.51 0 0 0 .33-.63 39 39 0 0 1-1.15-4.62A67.75 67.75 0 0 0 22 42c.23 2.14.53 4.2.91 6.14a.51.51 0 0 0 .49.4h.1a.49.49 0 0 0 .39-.59 84 84 0 0 1-1.41-15.4H26a.5.5 0 0 0 0-1h-3.5c0-3 .17-5.83.45-8.55 2.72-.28 5.59-.43 8.55-.45V30a.5.5 0 0 0 1 0v-7.5c3 0 5.84.17 8.56.45.16 1.64.29 3.33.36 5.07a.5.5 0 0 0 .52.48.51.51 0 0 0 .48-.52c-.07-1.7-.19-3.34-.34-4.92a65.28 65.28 0 0 1 9.85 1.82 44.44 44.44 0 0 1 .56 6.62H51a.5.5 0 0 0 0 1h11a30 30 0 0 1-1.93 10.15 1 1 0 0 0 .58 1.29 1 1 0 0 0 1.29-.59A32 32 0 0 0 32 0Zm3 52h2a2 2 0 0 1 0 4h-2a2 2 0 0 1 0-4Zm25.64-28.93a26.4 26.4 0 0 0-10.89-8.82 26.4 26.4 0 0 0-8.82-10.89 30.14 30.14 0 0 1 19.71 19.71Zm1.15 5.46c-1.79-1.76-4.91-3.29-9-4.47a40.31 40.31 0 0 0-2.44-8.41c5.45 2.77 9.48 6.75 11.2 11.33.11.51.18 1.02.24 1.55ZM2 31.5c0-.42 0-.84.05-1.26 1.22-1.95 4.45-3.71 9-5.06a44.8 44.8 0 0 0-.5 6.32Zm.2-3c.06-.52.13-1 .22-1.55 1.72-4.58 5.75-8.56 11.2-11.33a40.31 40.31 0 0 0-2.44 8.41c-4.06 1.21-7.18 2.74-8.97 4.5ZM15 15a38.57 38.57 0 0 1 8.77-2.72A66.56 66.56 0 0 0 22 22a66.56 66.56 0 0 0-9.75 1.74A38.57 38.57 0 0 1 15 15Zm.66-1.36C18.42 8.18 22.4 4.15 27 2.43c.51-.09 1-.16 1.55-.22-1.76 1.79-3.29 4.91-4.47 9a40.31 40.31 0 0 0-8.43 2.42ZM30.24 2.06c.42 0 .84 0 1.26-.05v8.5a44.8 44.8 0 0 0-6.32.5c1.35-4.5 3.11-7.73 5.06-8.95ZM32.5 2c.42 0 .84 0 1.25.05 2 1.23 3.72 4.44 5.07 9a44.8 44.8 0 0 0-6.32-.5Zm3 .2c.52.06 1 .13 1.55.22 4.58 1.72 8.56 5.75 11.33 11.2a40.93 40.93 0 0 0-8.41-2.44C38.76 7.1 37.22 4 35.47 2.21ZM23.07 3.36a26.4 26.4 0 0 0-8.82 10.89 26.4 26.4 0 0 0-10.89 8.82A30.14 30.14 0 0 1 23.07 3.36ZM2.33 34.13c-.11-.54-.2-1.08-.26-1.63h8.44a45.29 45.29 0 0 0 .49 6.32c-4.23-1.28-7.3-2.91-8.67-4.69ZM21.93 41a64.2 64.2 0 0 1-9.86-1.83 43.71 43.71 0 0 1-.56-6.63h10c.01 2.84.15 5.68.42 8.46Zm-.43-9.5h-10a44.44 44.44 0 0 1 .56-6.62 65.28 65.28 0 0 1 9.85-1.82c-.25 2.67-.39 5.5-.41 8.44Zm1.56-9.58a65.28 65.28 0 0 1 1.82-9.85 44.44 44.44 0 0 1 6.62-.56v10c-2.94.01-5.77.15-8.44.41Zm9.44-.42v-10a44.68 44.68 0 0 1 6.63.56A66.31 66.31 0 0 1 41 21.92c-2.73-.26-5.56-.4-8.5-.42Zm9.5.5a65.84 65.84 0 0 0-1.74-9.75A38.57 38.57 0 0 1 49 15a38.57 38.57 0 0 1 2.72 8.77A66.56 66.56 0 0 0 42 22Zm11 3.16c4.5 1.35 7.73 3.11 8.95 5.06 0 .42 0 .84.05 1.26h-8.5a44.8 44.8 0 0 0-.5-6.3Z"/><path class="cls-1" d="M32.19 42.41a11.09 11.09 0 0 1 15.69 15.68 1 1 0 0 0 .71 1.7 1 1 0 0 0 .71-.3A13.09 13.09 0 0 0 30.79 41a1 1 0 0 0 0 1.41 1 1 0 0 0 1.4 0Z"/><path class="cls-1" d="M52 38.25a17.15 17.15 0 0 1 .09 24.08 1 1 0 0 0 0 1.42 1 1 0 0 0 1.42 0 19.1 19.1 0 0 0-27-27A1 1 0 1 0 28 38.16a17.15 17.15 0 0 1 24 .09Z"/><path class="cls-1" d="M43.65 55.27a1 1 0 0 0 1.42 0 7.09 7.09 0 0 0-10-10 1 1 0 1 0 1.39 1.45 5.09 5.09 0 0 1 7.19 7.19 1 1 0 0 0 0 1.36Z"/></svg>